# xmcd
#
# Track frame offsets:
#	150
#	12649
#	27951
#	41229
#	57539
#	71882
#	86311
#	98454
#	109430
#	125449
#	142181
#	155540
#
# Disc length: 2247 seconds
#
# Revision: 1
# Processed by: cddbd v1.5.2PL0 Copyright (c) Steve Scherf et al.
# Submitted via: audiograbber 1.83.01
#
DISCID=ad08c50c
DTITLE=Gerda Gabriel - Heimat
DYEAR=1900
DGENRE=
TTITLE0=Geh´ Deinem Glück ein Stück entgegen
TTITLE1=Wenn man fast zu Atmen vergißt
TTITLE2=Andalusische Sonne
TTITLE3=Ich schick´ Dir heut ein Lied
TTITLE4=Du bist meine Heimat
TTITLE5=Im Herzen von Deutschland
TTITLE6=Der schönste Weg
TTITLE7=Hallo Thüringen
TTITLE8=Der alte Seebär
TTITLE9=Meine alte Liebe
TTITLE10=Heimweh nach Thüringen
TTITLE11=Es gibt sie doch - die große Liebe
EXTD=
EXTT0=
EXTT1=
EXTT2=
EXTT3=
EXTT4=
EXTT5=
EXTT6=
EXTT7=
EXTT8=
EXTT9=
EXTT10=
EXTT11=
PLAYORDER=
